<?xml version="1.0" encoding="UTF-8"?>
<!-- Generated by Pixelmator Pro 3.5.7 -->
<svg width="165" height="35" viewBox="0 0 165 35" xmlns="http://www.w3.org/2000/svg">
    <path id="Path" fill="#ffffff" stroke="none" visibility="hidden" d="M 45.256001 28.308001 C 43.818699 28.308001 42.474701 28.0467 41.223999 27.524 C 39.992001 27.001301 38.909302 26.2827 37.976002 25.368 C 37.042702 24.4347 36.314701 23.351999 35.792 22.120001 C 35.287998 20.869301 35.035999 19.5347 35.035999 18.115999 C 35.035999 16.6973 35.287998 15.3813 35.792 14.167999 C 36.314701 12.936001 37.033298 11.862701 37.948002 10.948 C 38.881302 10.0147 39.964001 9.296 41.195999 8.792 C 42.428001 8.269329 43.762699 8.007999 45.200001 8.007999 C 46.637299 8.007999 47.972 8.269329 49.203999 8.792 C 50.436001 9.296 51.5187 10.0147 52.452 10.948 C 53.3853 11.862701 54.104 12.936001 54.608002 14.167999 C 55.130699 15.4 55.391998 16.7253 55.391998 18.143999 C 55.391998 19.5627 55.130699 20.888 54.608002 22.120001 C 54.104 23.351999 53.3853 24.4347 52.452 25.368 C 51.5373 26.2827 50.464001 27.001301 49.231998 27.524 C 48 28.0467 46.674702 28.308001 45.256001 28.308001 Z M 54.132 29.455999 L 45.116001 20.440001 L 47.411999 18.115999 L 56.456001 27.16 L 54.132 29.455999 Z M 45.200001 24.752001 C 46.450699 24.752001 47.542702 24.472 48.476002 23.912001 C 49.428001 23.351999 50.165298 22.577299 50.688 21.587999 C 51.229301 20.5987 51.5 19.441299 51.5 18.115999 C 51.5 17.1453 51.341301 16.258699 51.023998 15.456001 C 50.7253 14.653301 50.296001 13.9627 49.736 13.383999 C 49.175999 12.786701 48.513302 12.3293 47.748001 12.012001 C 46.9827 11.6947 46.133301 11.535999 45.200001 11.535999 C 43.967999 11.535999 42.875999 11.816 41.924 12.375999 C 40.9907 12.917301 40.2533 13.682701 39.712002 14.672001 C 39.189301 15.661301 38.928001 16.809299 38.928001 18.115999 C 38.928001 19.105301 39.077301 20.0107 39.375999 20.832001 C 39.693298 21.653299 40.1227 22.3533 40.664001 22.931999 C 41.223999 23.5107 41.8867 23.9587 42.652 24.275999 C 43.436001 24.5933 44.285301 24.752001 45.200001 24.752001 Z M 64.360703 28.280001 C 63.1661 28.280001 62.1021 28.028 61.1688 27.524 C 60.254101 27.02 59.5354 26.32 59.012798 25.424 C 58.490101 24.528 58.228802 23.492001 58.228802 22.316 L 58.228802 14.476 L 61.924801 14.476 L 61.924801 22.232 C 61.924801 22.792 62.018101 23.2773 62.2048 23.688 C 62.391399 24.08 62.671398 24.3787 63.0448 24.584 C 63.418098 24.789301 63.8568 24.892 64.360703 24.892 C 65.126099 24.892 65.723396 24.658701 66.152802 24.191999 C 66.5821 23.7253 66.796799 23.072001 66.796799 22.232 L 66.796799 14.476 L 70.464798 14.476 L 70.464798 22.316 C 70.464798 23.5107 70.2034 24.556 69.680801 25.452 C 69.176804 26.348 68.458099 27.048 67.524803 27.552 C 66.6101 28.0373 65.555397 28.280001 64.360703 28.280001 Z M 73.385696 28 L 73.385696 14.476 L 77.081703 14.476 L 77.081703 28 L 73.385696 28 Z M 75.233704 12.292 C 74.636398 12.292 74.141701 12.096001 73.749702 11.704 C 73.357697 11.293301 73.161697 10.789299 73.161697 10.192001 C 73.161697 9.613331 73.357697 9.118671 73.749702 8.708 C 74.141701 8.297329 74.636398 8.091999 75.233704 8.091999 C 75.849701 8.091999 76.344398 8.297329 76.717697 8.708 C 77.109703 9.118671 77.305702 9.613331 77.305702 10.192001 C 77.305702 10.789299 77.109703 11.293301 76.717697 11.704 C 76.344398 12.096001 75.849701 12.292 75.233704 12.292 Z M 86.714996 28.280001 C 85.333702 28.280001 84.0924 27.972 82.990997 27.356001 C 81.889702 26.74 81.021698 25.9 80.387001 24.836 C 79.752403 23.771999 79.434998 22.577299 79.434998 21.252001 C 79.434998 19.908001 79.752403 18.704 80.387001 17.639999 C 81.021698 16.576 81.889702 15.736 82.990997 15.119999 C 84.111 14.4853 85.352402 14.167999 86.714996 14.167999 C 87.778999 14.167999 88.759003 14.364 89.654999 14.756001 C 90.551003 15.147999 91.325699 15.708 91.978996 16.436001 L 89.626999 18.816 C 89.2724 18.424 88.843002 18.125299 88.338997 17.92 C 87.853699 17.714701 87.312401 17.612 86.714996 17.612 C 86.042999 17.612 85.436401 17.7707 84.894997 18.087999 C 84.372398 18.3867 83.9524 18.8067 83.635002 19.348 C 83.336403 19.870701 83.186996 20.496 83.186996 21.224001 C 83.186996 21.9333 83.336403 22.568001 83.635002 23.128 C 83.9524 23.6693 84.372398 24.0987 84.894997 24.416 C 85.436401 24.714701 86.042999 24.864 86.714996 24.864 C 87.331001 24.864 87.881699 24.761299 88.366997 24.556 C 88.871002 24.332001 89.3004 24.0147 89.654999 23.604 L 92.035004 25.983999 C 91.344398 26.7307 90.551003 27.299999 89.654999 27.691999 C 88.759003 28.084 87.778999 28.280001 86.714996 28.280001 Z M 102.736 28 L 97.500298 21.028 L 102.708 14.476 L 106.935997 14.476 L 100.832001 21.868 L 100.972 20.076 L 107.216003 28 L 102.736 28 Z M 94.112297 28 L 94.112297 7.756001 L 97.780296 7.756001 L 97.780296 28 L 94.112297 28 Z M 115.009003 28.280001 C 113.422997 28.280001 112.059998 28.0093 110.920998 27.468 C 109.801003 26.926701 108.783997 26.1147 107.869003 25.032 L 110.389 22.511999 C 110.968002 23.2773 111.639999 23.874701 112.404999 24.304001 C 113.170998 24.714701 114.103996 24.92 115.205002 24.92 C 116.195 24.92 116.978996 24.724001 117.556999 24.332001 C 118.154999 23.940001 118.453003 23.398701 118.453003 22.708 C 118.453003 22.110701 118.285004 21.625299 117.948997 21.252001 C 117.612999 20.8787 117.165001 20.5613 116.605003 20.299999 C 116.064003 20.0387 115.457001 19.8053 114.785004 19.6 C 114.132004 19.375999 113.469002 19.124001 112.796997 18.844 C 112.143997 18.563999 111.537003 18.2187 110.976997 17.808001 C 110.435997 17.3787 109.997002 16.837299 109.661003 16.184 C 109.324997 15.512001 109.156998 14.672001 109.156998 13.664 C 109.156998 12.469299 109.446999 11.452 110.025002 10.612 C 110.603996 9.771999 111.397003 9.128 112.404999 8.68 C 113.413002 8.232 114.552002 8.007999 115.820999 8.007999 C 117.165001 8.007999 118.378998 8.26 119.460999 8.764 C 120.543999 9.268 121.431 9.921329 122.121002 10.723999 L 119.600998 13.243999 C 119.023003 12.609299 118.425003 12.1427 117.808998 11.844 C 117.211998 11.5453 116.530998 11.396 115.764999 11.396 C 114.888 11.396 114.196999 11.563999 113.693001 11.9 C 113.189003 12.236 112.936996 12.7213 112.936996 13.355999 C 112.936996 13.897301 113.105003 14.336 113.441002 14.672001 C 113.777 15.007999 114.216003 15.2973 114.757004 15.540001 C 115.317001 15.7827 115.924004 16.016001 116.577003 16.24 C 117.249001 16.464001 117.912003 16.716 118.565002 16.996 C 119.237 17.275999 119.844002 17.639999 120.385002 18.087999 C 120.945 18.535999 121.392998 19.1147 121.728996 19.823999 C 122.065002 20.5147 122.233002 21.373301 122.233002 22.4 C 122.233002 24.2293 121.588997 25.6667 120.301003 26.712 C 119.013 27.757299 117.249001 28.280001 115.009003 28.280001 Z M 126.834999 28 L 126.834999 8.848 L 130.503006 8.848 L 130.503006 28 L 126.834999 28 Z M 123.670998 17.695999 L 123.670998 14.476 L 133.667007 14.476 L 133.667007 17.695999 L 123.670998 17.695999 Z M 141.057007 28.280001 C 139.824997 28.280001 138.714996 27.972 137.725006 27.356001 C 136.735992 26.74 135.960999 25.9 135.401001 24.836 C 134.841003 23.771999 134.561005 22.577299 134.561005 21.252001 C 134.561005 19.908001 134.841003 18.704 135.401001 17.639999 C 135.960999 16.576 136.735992 15.736 137.725006 15.119999 C 138.714996 14.504 139.824997 14.195999 141.057007 14.195999 C 142.028 14.195999 142.895996 14.392 143.660995 14.784 C 144.427002 15.175999 145.033005 15.7267 145.481003 16.436001 C 145.947998 17.126699 146.199997 17.9107 146.237 18.788 L 146.237 23.66 C 146.199997 24.556 145.947998 25.3493 145.481003 26.040001 C 145.033005 26.7307 144.427002 27.2813 143.660995 27.691999 C 142.895996 28.084 142.028 28.280001 141.057007 28.280001 Z M 141.729004 24.892 C 142.755997 24.892 143.587006 24.556 144.220993 23.884001 C 144.856003 23.1933 145.173004 22.3067 145.173004 21.224001 C 145.173004 20.5147 145.024002 19.889299 144.725006 19.348 C 144.445007 18.788 144.044006 18.3587 143.520996 18.059999 C 143.016998 17.742701 142.419998 17.584 141.729004 17.584 C 141.057007 17.584 140.460007 17.742701 139.936996 18.059999 C 139.432999 18.3587 139.031998 18.788 138.733002 19.348 C 138.453003 19.889299 138.313004 20.5147 138.313004 21.224001 C 138.313004 21.952 138.453003 22.596001 138.733002 23.156 C 139.031998 23.6973 139.432999 24.126699 139.936996 24.444 C 140.460007 24.742701 141.057007 24.892 141.729004 24.892 Z M 144.977005 28 L 144.977005 24.360001 L 145.565002 21.056 L 144.977005 17.808001 L 144.977005 14.476 L 148.617004 14.476 L 148.617004 28 L 144.977005 28 Z M 156.117996 28.112 L 150.462006 14.476 L 154.438004 14.476 L 158.190002 24.892 L 156.845993 24.892 L 160.738007 14.476 L 164.742004 14.476 L 158.722 28.112 L 156.117996 28.112 Z M 152.365997 33.655998 L 156.481995 24.948 L 158.722 28.112 L 156.257996 33.655998 L 152.365997 33.655998 Z"/>
    <text id="NuC-Stay" xml:space="preserve" x="42" y="29" font-family="Outfit" font-size="27" font-weight="700" fill="#ffffff">NuC Stay.</text>
    <path id="path1" fill="#ffffff" fill-rule="evenodd" stroke="none" d="M 0.70092 11.860699 C 0 13.141201 0 14.6859 0 17.775299 L 0 19.8288 C 0 25.094801 0 27.728001 1.58162 29.363899 C 3.16325 31 5.70883 31 10.8 31 L 16.200001 31 C 21.2911 31 23.8368 31 25.418301 29.363899 C 27 27.728001 27 25.094801 27 19.8288 L 27 17.775299 C 27 14.6859 27 13.141201 26.299101 11.860699 C 25.5982 10.5802 24.317699 9.78544 21.756599 8.195961 L 19.056601 6.520269 C 16.3493 4.84009 14.9957 4 13.5 4 C 12.0043 4 10.6507 4.84009 7.94344 6.520269 L 5.24344 8.19598 C 2.68238 9.78544 1.40184 10.5802 0.70092 11.860699 Z M 10.0529 22.086599 C 9.6037 21.753599 8.96958 21.847799 8.63659 22.2971 C 8.30361 22.746401 8.39784 23.380501 8.84708 23.7134 C 10.1598 24.686501 11.7653 25.262501 13.5 25.262501 C 15.2347 25.262501 16.8402 24.686501 18.152901 23.7134 C 18.6022 23.380501 18.6964 22.746401 18.3634 22.2971 C 18.0305 21.847799 17.3964 21.753599 16.9471 22.086599 C 15.9637 22.815399 14.777 23.237499 13.5 23.237499 C 12.223 23.237499 11.0363 22.815399 10.0529 22.086599 Z"/>
</svg>
